<svg width="140" height="35" viewBox="0 0 140 35" fill="none" xmlns="http://www.w3.org/2000/svg">
<path d="M10.488 27L7.771 23.105C7.657 23.1177 7.486 23.124 7.258 23.124H4.256V27H1.786V13.7H7.258C8.41067 13.7 9.41133 13.89 10.26 14.27C11.1213 14.65 11.78 15.1947 12.236 15.904C12.692 16.6133 12.92 17.4557 12.92 18.431C12.92 19.4317 12.673 20.293 12.179 21.015C11.6977 21.737 11.001 22.2753 10.089 22.63L13.148 27H10.488ZM10.431 18.431C10.431 17.5823 10.1523 16.93 9.595 16.474C9.03767 16.018 8.22067 15.79 7.144 15.79H4.256V21.091H7.144C8.22067 21.091 9.03767 20.863 9.595 20.407C10.1523 19.9383 10.431 19.2797 10.431 18.431ZM19.5025 27.19C17.6658 27.19 16.2345 26.677 15.2085 25.651C14.1825 24.6123 13.6695 23.1303 13.6695 21.205V13.7H16.1395V21.11C16.1395 23.7193 17.2668 25.024 19.5215 25.024C21.7635 25.024 22.8845 23.7193 22.8845 21.11V13.7H25.3165V21.205C25.3165 23.1303 24.8035 24.6123 23.7775 25.651C22.7641 26.677 21.3391 27.19 19.5025 27.19ZM32.3476 13.7C33.5003 13.7 34.501 13.89 35.3496 14.27C36.211 14.65 36.8697 15.1947 37.3257 15.904C37.7816 16.6133 38.0096 17.4557 38.0096 18.431C38.0096 19.3937 37.7816 20.236 37.3257 20.958C36.8697 21.6673 36.211 22.212 35.3496 22.592C34.501 22.972 33.5003 23.162 32.3476 23.162H29.3456V27H26.8756V13.7H32.3476ZM32.2336 21.072C33.3103 21.072 34.1273 20.844 34.6846 20.388C35.242 19.932 35.5206 19.2797 35.5206 18.431C35.5206 17.5823 35.242 16.93 34.6846 16.474C34.1273 16.018 33.3103 15.79 32.2336 15.79H29.3456V21.072H32.2336ZM44.2952 27.19C42.4586 27.19 41.0272 26.677 40.0012 25.651C38.9752 24.6123 38.4622 23.1303 38.4622 21.205V13.7H40.9322V21.11C40.9322 23.7193 42.0596 25.024 44.3142 25.024C46.5562 25.024 47.6772 23.7193 47.6772 21.11V13.7H50.1092V21.205C50.1092 23.1303 49.5962 24.6123 48.5702 25.651C47.5569 26.677 46.1319 27.19 44.2952 27.19ZM60.3704 27L57.6534 23.105C57.5394 23.1177 57.3684 23.124 57.1404 23.124H54.1384V27H51.6684V13.7H57.1404C58.2931 13.7 59.2938 13.89 60.1424 14.27C61.0038 14.65 61.6624 15.1947 62.1184 15.904C62.5744 16.6133 62.8024 17.4557 62.8024 18.431C62.8024 19.4317 62.5554 20.293 62.0614 21.015C61.5801 21.737 60.8834 22.2753 59.9714 22.63L63.0304 27H60.3704ZM60.3134 18.431C60.3134 17.5823 60.0348 16.93 59.4774 16.474C58.9201 16.018 58.1031 15.79 57.0264 15.79H54.1384V21.091H57.0264C58.1031 21.091 58.9201 20.863 59.4774 20.407C60.0348 19.9383 60.3134 19.2797 60.3134 18.431ZM69.3849 27.19C67.5482 27.19 66.1169 26.677 65.0909 25.651C64.0649 24.6123 63.5519 23.1303 63.5519 21.205V13.7H66.0219V21.11C66.0219 23.7193 67.1492 25.024 69.4039 25.024C71.6459 25.024 72.7669 23.7193 72.7669 21.11V13.7H75.1989V21.205C75.1989 23.1303 74.6859 24.6123 73.6599 25.651C72.6465 26.677 71.2215 27.19 69.3849 27.19Z" fill="#666666"/>
<path d="M109.728 19.712C109.728 19.888 109.712 20.12 109.68 20.408H99.36C99.504 21.528 99.992 22.432 100.824 23.12C101.672 23.792 102.72 24.128 103.968 24.128C105.488 24.128 106.712 23.616 107.64 22.592L108.912 24.08C108.336 24.752 107.616 25.264 106.752 25.616C105.904 25.968 104.952 26.144 103.896 26.144C102.552 26.144 101.36 25.872 100.32 25.328C99.28 24.768 98.472 23.992 97.896 23C97.336 22.008 97.056 20.888 97.056 19.64C97.056 18.408 97.328 17.296 97.872 16.304C98.432 15.312 99.192 14.544 100.152 14C101.128 13.44 102.224 13.16 103.44 13.16C104.656 13.16 105.736 13.44 106.68 14C107.64 14.544 108.384 15.312 108.912 16.304C109.456 17.296 109.728 18.432 109.728 19.712ZM103.44 15.104C102.336 15.104 101.408 15.44 100.656 16.112C99.92 16.784 99.488 17.664 99.36 18.752H107.52C107.392 17.68 106.952 16.808 106.2 16.136C105.464 15.448 104.544 15.104 103.44 15.104ZM124.587 23.984V28.952H122.427V26H111.795V28.952H109.611V23.984H110.283C111.099 23.936 111.659 23.36 111.963 22.256C112.267 21.152 112.475 19.592 112.587 17.576L112.779 13.28H122.643V23.984H124.587ZM114.699 17.744C114.635 19.344 114.499 20.672 114.291 21.728C114.099 22.768 113.739 23.52 113.211 23.984H120.339V15.296H114.819L114.699 17.744ZM130.685 13.16C132.445 13.16 133.789 13.592 134.717 14.456C135.661 15.32 136.133 16.608 136.133 18.32V26H133.949V24.32C133.565 24.912 133.013 25.368 132.293 25.688C131.589 25.992 130.749 26.144 129.773 26.144C128.349 26.144 127.205 25.8 126.341 25.112C125.493 24.424 125.069 23.52 125.069 22.4C125.069 21.28 125.477 20.384 126.293 19.712C127.109 19.024 128.405 18.68 130.181 18.68H133.829V18.224C133.829 17.232 133.541 16.472 132.965 15.944C132.389 15.416 131.541 15.152 130.421 15.152C129.669 15.152 128.933 15.28 128.213 15.536C127.493 15.776 126.885 16.104 126.389 16.52L125.429 14.792C126.085 14.264 126.869 13.864 127.781 13.592C128.693 13.304 129.661 13.16 130.685 13.16ZM130.157 24.368C131.037 24.368 131.797 24.176 132.437 23.792C133.077 23.392 133.541 22.832 133.829 22.112V20.336H130.277C128.325 20.336 127.349 20.992 127.349 22.304C127.349 22.944 127.597 23.448 128.093 23.816C128.589 24.184 129.277 24.368 130.157 24.368Z" fill="#50B946"/>
<path d="M93.4273 12.9298C94.7569 13.2185 95.8443 13.8209 96.8061 14.6783C97.2544 15.0774 97.3796 15.5061 97.1866 16.0759C96.4666 18.2024 95.1405 19.7419 92.9726 20.4907C92.9228 20.5063 92.8739 20.5248 92.8262 20.5461C92.7973 20.5691 92.7717 20.5957 92.7499 20.6254L93.3366 21.1767C93.623 21.445 93.693 21.7576 93.6026 22.1398C92.9671 24.815 90.6397 26.8425 87.8596 27.1479C86.0215 27.3511 84.3773 26.891 82.9166 25.7563C82.8547 25.7081 82.7864 25.6708 82.6655 25.5926L82.4575 25.9528C81.7267 27.2185 80.9959 28.4844 80.265 29.7504C80.1907 29.8876 80.1014 30.0163 79.9987 30.1339C79.8802 30.2663 79.7191 30.3534 79.5427 30.3802C79.3663 30.4071 79.1856 30.3721 79.0315 30.2812C78.8724 30.185 78.7527 30.0356 78.6939 29.8598C78.6352 29.6841 78.6413 29.4936 78.7111 29.3228C78.7733 29.1791 78.8465 29.0404 78.9301 28.9079C79.7122 27.5533 80.4941 26.199 81.3012 24.8009C81.0974 24.7122 80.9229 24.6382 80.7498 24.5601C76.6622 22.7205 75.264 17.0757 78.8478 13.5868C79.1059 13.3349 79.399 13.2479 79.7456 13.3442C80.011 13.4181 80.2729 13.5025 80.6016 13.6018C80.5781 13.4435 80.5615 13.3113 80.5391 13.1821C80.16 10.8925 80.8736 8.96452 82.4505 7.31717C82.733 7.02226 83.0485 6.94156 83.4473 7.04619C84.6094 7.35037 85.6737 7.95071 86.5351 8.78793C86.6444 8.8956 86.7528 9.0027 86.8968 9.14511C86.9589 8.98626 87.0084 8.87008 87.05 8.75063C88.0014 5.99008 90.5926 4.2048 93.5251 4.27166C93.95 4.28132 94.1969 4.48979 94.3981 4.83096C95.8639 7.31991 95.581 10.4147 93.6817 12.6151C93.6092 12.7011 93.5393 12.7917 93.4273 12.9298ZM88.8419 13.3365C92.4394 13.2063 94.8017 9.35573 93.3007 6.11272C93.2007 5.89723 93.0896 5.83222 92.8533 5.85437C89.2887 6.19196 87.1451 10.1613 88.8419 13.3365ZM94.7244 15.0843C91.9776 13.4984 88.4509 14.7298 87.3229 17.6602C87.2395 17.8762 87.2516 17.9968 87.4436 18.1549C89.8718 20.1511 93.6144 19.4966 95.1581 16.7675C95.8117 15.6122 95.816 15.7844 94.7244 15.0843ZM80.7523 15.4193C80.503 15.3021 80.249 15.1946 80.0065 15.0649C79.7738 14.9408 79.6354 15.0288 79.4833 15.2083C77.2965 17.7978 78.5022 22.1267 81.7267 23.2685C81.9428 23.3451 82.0495 23.302 82.1869 23.1332C84.1703 20.7016 83.4917 17.0499 80.7523 15.4193ZM84.3836 9.10954C84.1609 8.99749 83.9351 8.89026 83.7171 8.76933C83.4517 8.62497 83.2778 8.7037 83.0951 8.93234C80.9657 11.5973 82.1227 15.7221 85.3442 16.9414C85.5682 17.0262 85.6865 17.0009 85.838 16.814C87.8129 14.3708 87.1225 10.7029 84.3836 9.10954ZM91.0855 21.3971C88.3219 19.8154 84.8577 21.0218 83.6802 23.9672C83.5841 24.2076 83.6288 24.3292 83.8231 24.4895C86.2233 26.4665 89.9962 25.7813 91.5304 23.0525C92.1597 21.9314 92.1706 22.1061 91.0855 21.3971Z" fill="#50B946"/>
</svg>
