<svg width="24" height="24" viewBox="0 0 24 24" fill="none" xmlns="http://www.w3.org/2000/svg">
<path d="M12.0025 13.4732L7.17732 18.2984C6.97732 18.4984 6.73572 18.5944 6.45252 18.5864C6.16932 18.5776 5.92772 18.4732 5.72772 18.2732C5.52772 18.0732 5.42772 17.8276 5.42772 17.5364C5.42772 17.2444 5.52772 16.9984 5.72772 16.7984L10.5277 11.9984L5.70252 7.17324C5.50252 6.97324 5.40652 6.72764 5.41452 6.43644C5.42332 6.14444 5.52772 5.89844 5.72772 5.69844C5.92772 5.49844 6.17332 5.39844 6.46452 5.39844C6.75652 5.39844 7.00252 5.49844 7.20252 5.69844L12.0025 10.5236L16.8277 5.69844C17.0277 5.49844 17.2733 5.39844 17.5645 5.39844C17.8565 5.39844 18.1025 5.49844 18.3025 5.69844C18.5025 5.89844 18.6025 6.14444 18.6025 6.43644C18.6025 6.72764 18.5025 6.97324 18.3025 7.17324L13.4773 11.9984L18.3025 16.8236C18.5025 17.0236 18.6025 17.2652 18.6025 17.5484C18.6025 17.8316 18.5025 18.0732 18.3025 18.2732C18.1025 18.4732 17.8565 18.5732 17.5645 18.5732C17.2733 18.5732 17.0277 18.4732 16.8277 18.2732L12.0025 13.4732Z" fill="#3D3D3D"/>
</svg>
