<svg width="22" height="22" viewBox="0 0 22 22" fill="none" xmlns="http://www.w3.org/2000/svg">
<path d="M18.0202 3.6581C15.6002 2.0081 12.6119 2.7781 10.9986 4.66643C9.38523 2.7781 6.3969 1.99893 3.9769 3.6581C2.69357 4.5381 1.8869 6.0231 1.8319 7.5906C1.70357 11.1473 4.8569 13.9981 9.6694 18.3706L9.76107 18.4531C10.4577 19.0856 11.5302 19.0856 12.2269 18.4439L12.3277 18.3523C17.1402 13.9889 20.2844 11.1381 20.1652 7.58143C20.1102 6.0231 19.3036 4.5381 18.0202 3.6581ZM11.0902 17.0048L10.9986 17.0964L10.9069 17.0048C6.54357 13.0539 3.66523 10.4414 3.66523 7.79227C3.66523 5.95893 5.04023 4.58393 6.87357 4.58393C8.28523 4.58393 9.66023 5.49143 10.1461 6.74727H11.8602C12.3369 5.49143 13.7119 4.58393 15.1236 4.58393C16.9569 4.58393 18.3319 5.95893 18.3319 7.79227C18.3319 10.4414 15.4536 13.0539 11.0902 17.0048Z" fill="#7D7D7D"/>
</svg>
