<svg width="24" height="24" viewBox="0 0 24 24" fill="none" xmlns="http://www.w3.org/2000/svg">
<path d="M5 5H11C11.55 5 12 4.55 12 4C12 3.45 11.55 3 11 3H5C3.9 3 3 3.9 3 5V19C3 20.1 3.9 21 5 21H11C11.55 21 12 20.55 12 20C12 19.45 11.55 19 11 19H5V5Z" fill="#E74C3C"/>
<path d="M20.65 11.6525L17.86 8.86247C17.54 8.54247 17 8.76247 17 9.21247V11.0025H10C9.45 11.0025 9 11.4525 9 12.0025C9 12.5525 9.45 13.0025 10 13.0025H17V14.7925C17 15.2425 17.54 15.4625 17.85 15.1425L20.64 12.3525C20.84 12.1625 20.84 11.8425 20.65 11.6525Z" fill="#E74C3C"/>
</svg>
