<svg width="22" height="22" viewBox="0 0 22 22" fill="none" xmlns="http://www.w3.org/2000/svg">
<path d="M16.5026 11.9193H11.9193V16.5026C11.9193 17.0068 11.5068 17.4193 11.0026 17.4193C10.4984 17.4193 10.0859 17.0068 10.0859 16.5026V11.9193H5.5026C4.99844 11.9193 4.58594 11.5068 4.58594 11.0026C4.58594 10.4984 4.99844 10.0859 5.5026 10.0859H10.0859V5.5026C10.0859 4.99844 10.4984 4.58594 11.0026 4.58594C11.5068 4.58594 11.9193 4.99844 11.9193 5.5026V10.0859H16.5026C17.0068 10.0859 17.4193 10.4984 17.4193 11.0026C17.4193 11.5068 17.0068 11.9193 16.5026 11.9193Z" fill="#7D7D7D"/>
</svg>
